<?xml version="1.0" encoding="utf-8"?>
<!-- Generator: Adobe Illustrator 25.3.1, SVG Export Plug-In . SVG Version: 6.00 Build 0)  -->
<svg version="1.1" id="Layer_1" xmlns="http://www.w3.org/2000/svg" xmlns:xlink="http://www.w3.org/1999/xlink" x="0px" y="0px"
	 viewBox="0 0 428.3 204.3" style="enable-background:new 0 0 428.3 204.3;" xml:space="preserve">
<style type="text/css">
	.st0{fill:#009C49;}
	.st1{fill:#FFFFFF;}
</style>
<g id="Basic_Logo">
	<rect x="-2.4" y="-0.6" class="st0" width="430.7" height="205.5"/>
	<g id="SB">
		<g>
			<path class="st1" d="M79.8,58c-3.8-1.3-8.4-2.2-13.3-2.2c-2.7,0-7.4,0.1-7.4,3c0,5.9,23.5,0.3,23.5,17.6c0,12-11.9,15-21.8,15
				c-6.6,0-12.1-0.6-18.5-2.1V77.6c4.6,1.9,10.3,2.9,15.4,2.9c4,0,7.7-0.8,7.7-3.1c0-6-23.5-0.6-23.5-18c0-12.3,12.9-14.5,23-14.5
				c4.8,0,10.2,0.6,14.8,1.5C79.8,46.5,79.8,58,79.8,58z"/>
			<path class="st1" d="M101.6,74c0-3.1,0.5-6.8,4-6.8s4.1,3.7,4.1,7.2s-0.6,6.9-4,6.9C102.1,81.2,101.6,77.9,101.6,74z M85.9,104.1
				h16.2V86.3h0.1c2.5,3.5,5.8,5,10.1,5c10.1,0,14.3-7.9,14.3-16.9c0-9.6-4-18-14.7-18c-5.3-0.1-8.5,1.8-10.8,6.8H101v-6H86v46.9
				H85.9z"/>
			<path class="st1" d="M146.4,73.2c0-3.9,0.4-7.2,3.6-7.2c3.2,0,3.6,3.2,3.6,7.2c0,4.8-0.4,8.4-3.6,8.4
				C146.7,81.6,146.4,78.1,146.4,73.2z M129.1,73.2c0,11.5,7.2,18,20.8,18c13.5,0,20.8-6.6,20.8-18.1c0-11.2-7.3-16.8-20.8-16.8
				C136.3,56.4,129.1,62.1,129.1,73.2z"/>
			<path class="st1" d="M189.6,57.1l0.1,7.6h0.1c1.9-4.8,5.1-8.3,10.2-8.3c1,0,2,0.1,2.6,0.3v13.4c-0.8-0.3-2.2-0.5-3.7-0.5
				c-4.5,0-8.3,3.9-8.3,8.8v12.1h-16.2V57.1H189.6z"/>
			<path class="st1" d="M211.6,57.1v-7.7l16.2-5v12.7h7.3v9.7h-7.3v9.4c0,2.8,1.4,4.3,3.5,4.3c1.5,0,2.6-0.2,3.8-0.6v9.6
				c-3.5,1-7.1,1.7-11.1,1.7c-8.4,0-12.4-4.2-12.4-13V66.8h-5.7v-9.7C205.9,57.1,211.6,57.1,211.6,57.1z"/>
			<path class="st1" d="M239.4,79.8c3.1,1.9,7.7,3,11.9,3c2.7,0,5.9-0.5,5.9-2.2c0-4.1-18.7-0.1-18.7-13c0-9.6,10.9-11.2,18.8-11.2
				c4,0,8.1,0.6,12.1,1.4v9c-3.4-1.1-6.9-1.9-10.5-1.9c-2.8,0-5.5,0.2-5.5,2.3c0,3.4,18.7-0.5,18.7,12.1c0,9.6-10.9,12.1-18.5,12.1
				c-4.7,0-9.4-0.8-14-1.9L239.4,79.8L239.4,79.8z"/>
		</g>
		<g>
			<path class="st1" d="M58.6,141.1h4.6c3.2,0,6.4,0.7,6.4,4.6c0,3.5-3.4,4.6-6.6,4.6h-4.5L58.6,141.1L58.6,141.1z M42.4,159.5h26
				c9.3,0,18.4-1.1,18.4-12.4c0-4.5-3.8-9.4-10.1-10.2v-0.1c6-1.5,9.2-4.8,9.2-11c0-8.6-7.6-11.1-15.4-11.1H42.4V159.5z M58.6,123.1
				h4.7c3.1,0,5.9,1,5.9,4.4c0,3.4-3.3,4.3-6.3,4.3h-4.3V123.1z"/>
			<path class="st1" d="M113.1,145.8c0,2.9-1.7,6-5,6c-2.5,0-3.8-0.9-3.8-3.2c0-3.5,3.8-3.8,7.2-3.8h1.6
				C113.1,144.8,113.1,145.8,113.1,145.8z M93.4,136.6c3.2-1.6,7.3-2.8,11.2-2.8c4,0,8.4,0.5,8.5,4.7c-1.5-0.1-4-0.4-6.3-0.4
				c-8,0-17.3,2.1-17.3,12.3c0,7,6,9.8,12.3,9.8c4.5,0,8.6-1.8,10.9-5.6h0.1v4.8h15V139c0-12.1-11.2-13.8-20.5-13.8
				c-6.3,0-9.2,0.6-14,1.9L93.4,136.6L93.4,136.6z"/>
			<path class="st1" d="M132.9,148.8c3.1,1.9,7.7,3,11.9,3c2.7,0,5.9-0.5,5.9-2.2c0-4.1-18.7-0.1-18.7-13c0-9.6,10.9-11.2,18.8-11.2
				c4.1,0,8.1,0.6,12.1,1.4v9c-3.4-1.1-6.9-1.9-10.5-1.9c-2.8,0-5.5,0.3-5.5,2.3c0,3.4,18.7-0.5,18.7,12.1
				c0,9.6-10.9,12.1-18.5,12.1c-4.7,0-9.4-0.8-14-1.9L132.9,148.8L132.9,148.8z"/>
			<path class="st1" d="M183.5,139.6c-0.2-2.6,0.6-6.5,4.4-6.5c3.7,0,4.1,4,4.1,6.5H183.5z M205.9,146.7v-2
				c0-11.2-4.6-19.3-17.5-19.3c-13.6,0-20.7,5.7-20.7,16.8c0,11.6,7.2,18.1,20.7,18.1c5.7,0,10.8-0.6,15.1-1.9v-8.7
				c-2.6,1.4-6.5,2.1-10.9,2.1c-4.8,0-8.7-1-9-5.1L205.9,146.7L205.9,146.7z"/>
			<path class="st1" d="M209.8,126.1h15.3v5.8h0.1c1.9-4.7,6.3-6.6,11.4-6.5c4.5,0,9.2,1.7,10.5,5.7h0.1c1.1-3.9,6.7-5.7,10.7-5.7
				c11.8,0,11.8,7.6,11.8,14.2v20h-16.2v-19.2c0-1.9,0-4.6-2.9-4.6c-2.8,0-2.8,2.6-2.8,4.6v19.2h-16.2v-19.2c0-1.9,0-4.6-2.8-4.6
				c-2.9,0-2.9,2.6-2.9,4.6v19.2h-16.2L209.8,126.1L209.8,126.1z"/>
			<path class="st1" d="M288.2,139.6c-0.2-2.6,0.6-6.5,4.4-6.5c3.7,0,4.1,4,4.1,6.5H288.2z M310.6,146.7v-2
				c0-11.2-4.5-19.3-17.5-19.3c-13.6,0-20.7,5.7-20.7,16.8c0,11.6,7.2,18.1,20.7,18.1c5.7,0,10.8-0.6,15.1-1.9v-8.7
				c-2.6,1.4-6.5,2.1-11,2.1c-4.8,0-8.7-1-9-5.1L310.6,146.7L310.6,146.7z"/>
			<path class="st1" d="M314.1,126.1h15.3v5.8h0.1c1.9-4.7,6.3-6.6,10.9-6.5c8.6,0,11.8,4.5,11.8,11v23.2H336v-19.2
				c0-1.9,0-4.6-2.8-4.6c-2.9,0-2.9,2.6-2.9,4.6v19.2h-16.2V126.1L314.1,126.1z"/>
			<path class="st1" d="M359.5,126.1v-7.7l16.2-4.9v12.7h7.3v9.7h-7.3v9.4c0,2.8,1.4,4.3,3.5,4.3c1.5,0,2.6-0.2,3.8-0.6v9.6
				c-3.5,1-7.1,1.7-11.1,1.7c-8.4,0-12.4-4.1-12.4-13v-11.5h-5.7v-9.7L359.5,126.1L359.5,126.1z"/>
		</g>
		<g>
			<rect x="42.3" y="103.7" class="st1" width="341" height="1.5"/>
		</g>
		<g>
			<polygon class="st1" points="348.5,81.2 348.5,69.6 291.9,52.2 291.9,58 			"/>
			<polygon class="st1" points="383.3,45.8 383.3,34.8 328.5,34.8 328.5,40.2 			"/>
			<polygon class="st1" points="365.8,63.7 365.8,52.3 309.5,43.6 309.5,49.5 			"/>
		</g>
	</g>
</g>
</svg>
